<svg xmlns="http://www.w3.org/2000/svg" xmlns:xlink="http://www.w3.org/1999/xlink" width="500" zoomAndPan="magnify" viewBox="0 0 375 149.999998" height="200" preserveAspectRatio="xMidYMid meet" version="1.0"><defs><g/><clipPath id="efd007ca4c"><path d="M 36 82 L 74 82 L 74 124.28125 L 36 124.28125 Z M 36 82 " clip-rule="nonzero"/></clipPath><clipPath id="fa8544ce4d"><path d="M 13.0625 27.503906 L 92 27.503906 L 92 88 L 13.0625 88 Z M 13.0625 27.503906 " clip-rule="nonzero"/></clipPath><clipPath id="af07ca8c1d"><path d="M 99 78 L 122.945312 78 L 122.945312 88 L 99 88 Z M 99 78 " clip-rule="nonzero"/></clipPath><clipPath id="1308f19242"><path d="M 113.570312 78.15625 L 347.519531 78.15625 L 347.519531 87.617188 L 113.570312 87.617188 Z M 113.570312 78.15625 " clip-rule="nonzero"/></clipPath><clipPath id="6590d5efee"><path d="M 118.300781 78.15625 L 342.75 78.15625 C 345.363281 78.15625 347.484375 80.273438 347.484375 82.886719 C 347.484375 85.5 345.363281 87.617188 342.75 87.617188 L 118.300781 87.617188 C 115.6875 87.617188 113.570312 85.5 113.570312 82.886719 C 113.570312 80.273438 115.6875 78.15625 118.300781 78.15625 Z M 118.300781 78.15625 " clip-rule="nonzero"/></clipPath></defs><rect x="-37.5" width="450" fill="#ffffff" y="-15" height="179.999997" fill-opacity="1"/><rect x="-37.5" width="450" fill="#ffffff" y="-15" height="179.999997" fill-opacity="1"/><g clip-path="url(#efd007ca4c)"><path fill="#5271ff" d="M 63.933594 82.289062 L 63.933594 105.894531 C 63.933594 110.859375 59.910156 114.886719 54.941406 114.886719 C 49.976562 114.886719 45.949219 110.859375 45.949219 105.894531 L 45.949219 91.597656 L 36.355469 91.597656 L 36.355469 105.894531 C 36.355469 116.160156 44.675781 124.480469 54.941406 124.480469 C 65.207031 124.480469 73.527344 116.160156 73.527344 105.894531 L 73.527344 82.289062 L 63.933594 82.289062 " fill-opacity="1" fill-rule="nonzero"/></g><path fill="#a7a5a6" d="M 73.527344 91.597656 L 73.527344 82.289062 L 63.933594 82.289062 L 73.527344 82.289062 L 73.527344 91.597656 " fill-opacity="1" fill-rule="nonzero"/><path fill="#356f95" d="M 63.933594 91.597656 L 73.527344 91.597656 L 73.527344 82.289062 L 63.933594 82.289062 Z M 63.933594 91.597656 " fill-opacity="1" fill-rule="nonzero"/><g clip-path="url(#fa8544ce4d)"><path fill="#ed127c" d="M 86.570312 78.183594 L 31.78125 78.183594 C 26.839844 78.183594 22.71875 74.253906 22.652344 69.3125 C 22.585938 64.289062 26.636719 60.195312 31.644531 60.195312 L 45.933594 60.195312 L 45.933594 46.097656 C 45.933594 41.128906 49.96875 37.105469 54.933594 37.105469 C 59.898438 37.105469 63.921875 41.128906 63.921875 46.097656 L 63.921875 74.257812 L 73.570312 74.257812 L 73.570312 46.097656 C 73.570312 35.832031 65.246094 27.507812 54.980469 27.507812 L 54.917969 27.507812 C 44.671875 27.507812 36.285156 35.894531 36.285156 46.140625 L 36.285156 50.550781 L 31.644531 50.550781 C 21.378906 50.550781 13.058594 58.925781 13.058594 69.191406 C 13.058594 79.457031 21.378906 87.832031 31.644531 87.832031 L 86.570312 87.832031 C 89.234375 87.832031 91.394531 85.671875 91.394531 83.007812 C 91.394531 80.34375 89.234375 78.183594 86.570312 78.183594 " fill-opacity="1" fill-rule="nonzero"/></g><g clip-path="url(#af07ca8c1d)"><path fill="#ed127c" d="M 99.40625 83.007812 C 99.40625 85.671875 101.566406 87.832031 104.230469 87.832031 L 118.292969 87.832031 C 120.957031 87.832031 123.117188 85.671875 123.117188 83.007812 C 123.117188 80.34375 120.957031 78.183594 118.292969 78.183594 L 104.230469 78.183594 C 101.566406 78.183594 99.40625 80.34375 99.40625 83.007812 " fill-opacity="1" fill-rule="nonzero"/></g><g clip-path="url(#1308f19242)"><g clip-path="url(#6590d5efee)"><path fill="#ed127c" d="M 113.570312 78.15625 L 347.480469 78.15625 L 347.480469 87.617188 L 113.570312 87.617188 Z M 113.570312 78.15625 " fill-opacity="1" fill-rule="nonzero"/></g></g><g fill="#5271ff" fill-opacity="1"><g transform="translate(100.731969, 60.141989)"><g><path d="M 2.328125 0 L 2.328125 -26.125 L 11.484375 -26.125 C 14.648438 -26.125 17.050781 -25.515625 18.6875 -24.296875 C 20.332031 -23.085938 21.15625 -21.3125 21.15625 -18.96875 C 21.15625 -17.6875 20.828125 -16.554688 20.171875 -15.578125 C 19.515625 -14.609375 18.597656 -13.894531 17.421875 -13.4375 C 18.765625 -13.101562 19.820312 -12.425781 20.59375 -11.40625 C 21.363281 -10.394531 21.75 -9.15625 21.75 -7.6875 C 21.75 -5.164062 20.945312 -3.257812 19.34375 -1.96875 C 17.738281 -0.675781 15.453125 -0.0195312 12.484375 0 Z M 7.71875 -11.375 L 7.71875 -4.328125 L 12.328125 -4.328125 C 13.597656 -4.328125 14.585938 -4.628906 15.296875 -5.234375 C 16.003906 -5.835938 16.359375 -6.671875 16.359375 -7.734375 C 16.359375 -10.128906 15.125 -11.34375 12.65625 -11.375 Z M 7.71875 -15.1875 L 11.703125 -15.1875 C 14.410156 -15.226562 15.765625 -16.304688 15.765625 -18.421875 C 15.765625 -19.609375 15.421875 -20.460938 14.734375 -20.984375 C 14.046875 -21.503906 12.960938 -21.765625 11.484375 -21.765625 L 7.71875 -21.765625 Z M 7.71875 -15.1875 "/></g></g></g><g fill="#5271ff" fill-opacity="1"><g transform="translate(124.184572, 60.141989)"><g><path d="M 7.046875 -17.296875 C 8.421875 -18.953125 10.148438 -19.78125 12.234375 -19.78125 C 16.441406 -19.78125 18.578125 -17.332031 18.640625 -12.4375 L 18.640625 0 L 13.453125 0 L 13.453125 -12.296875 C 13.453125 -13.398438 13.210938 -14.21875 12.734375 -14.75 C 12.253906 -15.289062 11.460938 -15.5625 10.359375 -15.5625 C 8.835938 -15.5625 7.734375 -14.972656 7.046875 -13.796875 L 7.046875 0 L 1.859375 0 L 1.859375 -27.5625 L 7.046875 -27.5625 Z M 7.046875 -17.296875 "/></g></g></g><g fill="#5271ff" fill-opacity="1"><g transform="translate(144.748211, 60.141989)"><g><path d="M 13.25 0 C 13.007812 -0.46875 12.832031 -1.046875 12.71875 -1.734375 C 11.46875 -0.335938 9.835938 0.359375 7.828125 0.359375 C 5.921875 0.359375 4.34375 -0.1875 3.09375 -1.28125 C 1.84375 -2.382812 1.21875 -3.773438 1.21875 -5.453125 C 1.21875 -7.515625 1.976562 -9.09375 3.5 -10.1875 C 5.03125 -11.289062 7.238281 -11.847656 10.125 -11.859375 L 12.5 -11.859375 L 12.5 -12.96875 C 12.5 -13.863281 12.269531 -14.582031 11.8125 -15.125 C 11.351562 -15.664062 10.628906 -15.9375 9.640625 -15.9375 C 8.765625 -15.9375 8.078125 -15.722656 7.578125 -15.296875 C 7.085938 -14.878906 6.84375 -14.304688 6.84375 -13.578125 L 1.65625 -13.578125 C 1.65625 -14.703125 2 -15.742188 2.6875 -16.703125 C 3.382812 -17.660156 4.363281 -18.410156 5.625 -18.953125 C 6.894531 -19.503906 8.320312 -19.78125 9.90625 -19.78125 C 12.300781 -19.78125 14.203125 -19.175781 15.609375 -17.96875 C 17.015625 -16.769531 17.71875 -15.082031 17.71875 -12.90625 L 17.71875 -4.484375 C 17.726562 -2.640625 17.984375 -1.25 18.484375 -0.3125 L 18.484375 0 Z M 8.953125 -3.609375 C 9.722656 -3.609375 10.429688 -3.773438 11.078125 -4.109375 C 11.722656 -4.453125 12.195312 -4.910156 12.5 -5.484375 L 12.5 -8.828125 L 10.5625 -8.828125 C 7.96875 -8.828125 6.585938 -7.929688 6.421875 -6.140625 L 6.40625 -5.828125 C 6.40625 -5.179688 6.628906 -4.648438 7.078125 -4.234375 C 7.535156 -3.816406 8.160156 -3.609375 8.953125 -3.609375 Z M 8.953125 -3.609375 "/></g></g></g><g fill="#5271ff" fill-opacity="1"><g transform="translate(164.450545, 60.141989)"><g><path d="M 12.90625 -14.546875 C 12.195312 -14.648438 11.570312 -14.703125 11.03125 -14.703125 C 9.070312 -14.703125 7.785156 -14.035156 7.171875 -12.703125 L 7.171875 0 L 1.984375 0 L 1.984375 -19.421875 L 6.890625 -19.421875 L 7.03125 -17.09375 C 8.070312 -18.882812 9.515625 -19.78125 11.359375 -19.78125 C 11.929688 -19.78125 12.46875 -19.703125 12.96875 -19.546875 Z M 12.90625 -14.546875 "/></g></g></g><g fill="#5271ff" fill-opacity="1"><g transform="translate(177.854598, 60.141989)"><g><path d="M 13.25 0 C 13.007812 -0.46875 12.832031 -1.046875 12.71875 -1.734375 C 11.46875 -0.335938 9.835938 0.359375 7.828125 0.359375 C 5.921875 0.359375 4.34375 -0.1875 3.09375 -1.28125 C 1.84375 -2.382812 1.21875 -3.773438 1.21875 -5.453125 C 1.21875 -7.515625 1.976562 -9.09375 3.5 -10.1875 C 5.03125 -11.289062 7.238281 -11.847656 10.125 -11.859375 L 12.5 -11.859375 L 12.5 -12.96875 C 12.5 -13.863281 12.269531 -14.582031 11.8125 -15.125 C 11.351562 -15.664062 10.628906 -15.9375 9.640625 -15.9375 C 8.765625 -15.9375 8.078125 -15.722656 7.578125 -15.296875 C 7.085938 -14.878906 6.84375 -14.304688 6.84375 -13.578125 L 1.65625 -13.578125 C 1.65625 -14.703125 2 -15.742188 2.6875 -16.703125 C 3.382812 -17.660156 4.363281 -18.410156 5.625 -18.953125 C 6.894531 -19.503906 8.320312 -19.78125 9.90625 -19.78125 C 12.300781 -19.78125 14.203125 -19.175781 15.609375 -17.96875 C 17.015625 -16.769531 17.71875 -15.082031 17.71875 -12.90625 L 17.71875 -4.484375 C 17.726562 -2.640625 17.984375 -1.25 18.484375 -0.3125 L 18.484375 0 Z M 8.953125 -3.609375 C 9.722656 -3.609375 10.429688 -3.773438 11.078125 -4.109375 C 11.722656 -4.453125 12.195312 -4.910156 12.5 -5.484375 L 12.5 -8.828125 L 10.5625 -8.828125 C 7.96875 -8.828125 6.585938 -7.929688 6.421875 -6.140625 L 6.40625 -5.828125 C 6.40625 -5.179688 6.628906 -4.648438 7.078125 -4.234375 C 7.535156 -3.816406 8.160156 -3.609375 8.953125 -3.609375 Z M 8.953125 -3.609375 "/></g></g></g><g fill="#5271ff" fill-opacity="1"><g transform="translate(197.556933, 60.141989)"><g><path d="M 8.203125 -24.1875 L 8.203125 -19.421875 L 11.515625 -19.421875 L 11.515625 -15.609375 L 8.203125 -15.609375 L 8.203125 -5.921875 C 8.203125 -5.203125 8.335938 -4.6875 8.609375 -4.375 C 8.890625 -4.0625 9.414062 -3.90625 10.1875 -3.90625 C 10.757812 -3.90625 11.269531 -3.945312 11.71875 -4.03125 L 11.71875 -0.109375 C 10.695312 0.203125 9.648438 0.359375 8.578125 0.359375 C 4.941406 0.359375 3.085938 -1.476562 3.015625 -5.15625 L 3.015625 -15.609375 L 0.171875 -15.609375 L 0.171875 -19.421875 L 3.015625 -19.421875 L 3.015625 -24.1875 Z M 8.203125 -24.1875 "/></g></g></g><g fill="#5271ff" fill-opacity="1"><g transform="translate(209.974069, 60.141989)"><g/></g></g><g fill="#5271ff" fill-opacity="1"><g transform="translate(219.125426, 60.141989)"><g><path d="M 9.359375 -26.125 L 16.078125 -7.171875 L 22.75 -26.125 L 29.828125 -26.125 L 29.828125 0 L 24.421875 0 L 24.421875 -7.140625 L 24.953125 -19.46875 L 17.90625 0 L 14.21875 0 L 7.171875 -19.453125 L 7.71875 -7.140625 L 7.71875 0 L 2.328125 0 L 2.328125 -26.125 Z M 9.359375 -26.125 "/></g></g></g><g fill="#5271ff" fill-opacity="1"><g transform="translate(251.316672, 60.141989)"><g><path d="M 10.921875 0.359375 C 8.078125 0.359375 5.757812 -0.507812 3.96875 -2.25 C 2.1875 -4 1.296875 -6.328125 1.296875 -9.234375 L 1.296875 -9.75 C 1.296875 -11.695312 1.671875 -13.4375 2.421875 -14.96875 C 3.171875 -16.507812 4.238281 -17.695312 5.625 -18.53125 C 7.007812 -19.363281 8.585938 -19.78125 10.359375 -19.78125 C 13.015625 -19.78125 15.101562 -18.941406 16.625 -17.265625 C 18.144531 -15.585938 18.90625 -13.210938 18.90625 -10.140625 L 18.90625 -8.015625 L 6.546875 -8.015625 C 6.710938 -6.753906 7.21875 -5.738281 8.0625 -4.96875 C 8.90625 -4.207031 9.972656 -3.828125 11.265625 -3.828125 C 13.265625 -3.828125 14.828125 -4.550781 15.953125 -6 L 18.5 -3.140625 C 17.71875 -2.035156 16.660156 -1.175781 15.328125 -0.5625 C 14.003906 0.0507812 12.535156 0.359375 10.921875 0.359375 Z M 10.34375 -15.578125 C 9.3125 -15.578125 8.472656 -15.226562 7.828125 -14.53125 C 7.191406 -13.84375 6.785156 -12.851562 6.609375 -11.5625 L 13.8125 -11.5625 L 13.8125 -11.96875 C 13.789062 -13.113281 13.476562 -14 12.875 -14.625 C 12.28125 -15.257812 11.4375 -15.578125 10.34375 -15.578125 Z M 10.34375 -15.578125 "/></g></g></g><g fill="#5271ff" fill-opacity="1"><g transform="translate(271.180506, 60.141989)"><g><path d="M 1.1875 -9.84375 C 1.1875 -12.875 1.863281 -15.285156 3.21875 -17.078125 C 4.570312 -18.878906 6.429688 -19.78125 8.796875 -19.78125 C 10.679688 -19.78125 12.238281 -19.070312 13.46875 -17.65625 L 13.46875 -27.5625 L 18.6875 -27.5625 L 18.6875 0 L 14 0 L 13.75 -2.0625 C 12.457031 -0.445312 10.789062 0.359375 8.75 0.359375 C 6.46875 0.359375 4.632812 -0.539062 3.25 -2.34375 C 1.875 -4.144531 1.1875 -6.644531 1.1875 -9.84375 Z M 6.375 -9.46875 C 6.375 -7.65625 6.6875 -6.265625 7.3125 -5.296875 C 7.945312 -4.328125 8.867188 -3.84375 10.078125 -3.84375 C 11.679688 -3.84375 12.8125 -4.519531 13.46875 -5.875 L 13.46875 -13.53125 C 12.820312 -14.882812 11.707031 -15.5625 10.125 -15.5625 C 7.625 -15.5625 6.375 -13.53125 6.375 -9.46875 Z M 6.375 -9.46875 "/></g></g></g><g fill="#5271ff" fill-opacity="1"><g transform="translate(291.887696, 60.141989)"><g><path d="M 7.46875 0 L 2.265625 0 L 2.265625 -19.421875 L 7.46875 -19.421875 Z M 1.953125 -24.4375 C 1.953125 -25.21875 2.210938 -25.859375 2.734375 -26.359375 C 3.253906 -26.859375 3.960938 -27.109375 4.859375 -27.109375 C 5.742188 -27.109375 6.445312 -26.859375 6.96875 -26.359375 C 7.5 -25.859375 7.765625 -25.21875 7.765625 -24.4375 C 7.765625 -23.644531 7.5 -23 6.96875 -22.5 C 6.4375 -22 5.734375 -21.75 4.859375 -21.75 C 3.984375 -21.75 3.28125 -22 2.75 -22.5 C 2.21875 -23 1.953125 -23.644531 1.953125 -24.4375 Z M 1.953125 -24.4375 "/></g></g></g><g fill="#5271ff" fill-opacity="1"><g transform="translate(301.631205, 60.141989)"><g><path d="M 10.0625 -3.828125 C 11.019531 -3.828125 11.796875 -4.085938 12.390625 -4.609375 C 12.992188 -5.140625 13.304688 -5.84375 13.328125 -6.71875 L 18.203125 -6.71875 C 18.179688 -5.394531 17.816406 -4.1875 17.109375 -3.09375 C 16.410156 -2 15.445312 -1.148438 14.21875 -0.546875 C 12.988281 0.0546875 11.632812 0.359375 10.15625 0.359375 C 7.382812 0.359375 5.195312 -0.519531 3.59375 -2.28125 C 1.988281 -4.050781 1.1875 -6.488281 1.1875 -9.59375 L 1.1875 -9.9375 C 1.1875 -12.925781 1.976562 -15.3125 3.5625 -17.09375 C 5.15625 -18.882812 7.34375 -19.78125 10.125 -19.78125 C 12.550781 -19.78125 14.492188 -19.085938 15.953125 -17.703125 C 17.421875 -16.316406 18.171875 -14.476562 18.203125 -12.1875 L 13.328125 -12.1875 C 13.304688 -13.1875 12.992188 -14 12.390625 -14.625 C 11.796875 -15.257812 11.007812 -15.578125 10.03125 -15.578125 C 8.820312 -15.578125 7.910156 -15.132812 7.296875 -14.25 C 6.679688 -13.375 6.375 -11.953125 6.375 -9.984375 L 6.375 -9.4375 C 6.375 -7.4375 6.675781 -6 7.28125 -5.125 C 7.894531 -4.257812 8.820312 -3.828125 10.0625 -3.828125 Z M 10.0625 -3.828125 "/></g></g></g><g fill="#5271ff" fill-opacity="1"><g transform="translate(320.795225, 60.141989)"><g><path d="M 12.5 -5.359375 C 12.5 -5.992188 12.1875 -6.492188 11.5625 -6.859375 C 10.9375 -7.222656 9.929688 -7.550781 8.546875 -7.84375 C 3.921875 -8.8125 1.609375 -10.773438 1.609375 -13.734375 C 1.609375 -15.453125 2.320312 -16.890625 3.75 -18.046875 C 5.1875 -19.203125 7.054688 -19.78125 9.359375 -19.78125 C 11.828125 -19.78125 13.800781 -19.195312 15.28125 -18.03125 C 16.757812 -16.875 17.5 -15.367188 17.5 -13.515625 L 12.3125 -13.515625 C 12.3125 -14.253906 12.070312 -14.863281 11.59375 -15.34375 C 11.113281 -15.832031 10.363281 -16.078125 9.34375 -16.078125 C 8.476562 -16.078125 7.804688 -15.878906 7.328125 -15.484375 C 6.847656 -15.085938 6.609375 -14.585938 6.609375 -13.984375 C 6.609375 -13.410156 6.878906 -12.945312 7.421875 -12.59375 C 7.960938 -12.238281 8.878906 -11.929688 10.171875 -11.671875 C 11.460938 -11.410156 12.550781 -11.117188 13.4375 -10.796875 C 16.175781 -9.796875 17.546875 -8.054688 17.546875 -5.578125 C 17.546875 -3.804688 16.785156 -2.375 15.265625 -1.28125 C 13.742188 -0.1875 11.785156 0.359375 9.390625 0.359375 C 7.753906 0.359375 6.304688 0.0703125 5.046875 -0.5 C 3.785156 -1.082031 2.796875 -1.878906 2.078125 -2.890625 C 1.359375 -3.910156 1 -5.003906 1 -6.171875 L 5.921875 -6.171875 C 5.972656 -5.253906 6.3125 -4.546875 6.9375 -4.046875 C 7.570312 -3.554688 8.425781 -3.3125 9.5 -3.3125 C 10.488281 -3.3125 11.234375 -3.5 11.734375 -3.875 C 12.242188 -4.257812 12.5 -4.753906 12.5 -5.359375 Z M 12.5 -5.359375 "/></g></g></g><g fill="#5271ff" fill-opacity="1"><g transform="translate(100.731969, 113.709111)"><g><path d="M 1.71875 0 L 1.71875 -11.828125 L 3.21875 -11.828125 L 3.21875 -1.421875 L 8.953125 -1.421875 L 8.953125 0 Z M 1.71875 0 "/></g></g></g><g fill="#5271ff" fill-opacity="1"><g transform="translate(112.192609, 113.709111)"><g><path d="M 1.71875 0 L 1.71875 -11.828125 L 3.21875 -11.828125 L 3.21875 0 Z M 1.71875 0 "/></g></g></g><g fill="#5271ff" fill-opacity="1"><g transform="translate(119.106742, 113.709111)"><g><path d="M 5 0 L 0.28125 -11.828125 L 1.875 -11.828125 L 3.84375 -6.84375 L 5.703125 -2.140625 L 7.546875 -6.84375 L 9.515625 -11.828125 L 11.09375 -11.828125 L 6.390625 0 Z M 5 0 "/></g></g></g><g fill="#5271ff" fill-opacity="1"><g transform="translate(132.460356, 113.709111)"><g><path d="M 1.71875 0 L 1.71875 -11.828125 L 3.21875 -11.828125 L 3.21875 0 Z M 1.71875 0 "/></g></g></g><g fill="#5271ff" fill-opacity="1"><g transform="translate(139.374487, 113.709111)"><g><path d="M 1.71875 0 L 1.71875 -11.828125 L 3.125 -11.828125 L 9.671875 -2.5625 L 9.671875 -11.828125 L 11.125 -11.828125 L 11.125 0 L 9.734375 0 L 3.1875 -9.265625 L 3.1875 0 Z M 1.71875 0 "/></g></g></g><g fill="#5271ff" fill-opacity="1"><g transform="translate(154.198526, 113.709111)"><g><path d="M 7 0.21875 C 6.132812 0.21875 5.332031 0.0664062 4.59375 -0.234375 C 3.863281 -0.535156 3.226562 -0.957031 2.6875 -1.5 C 2.144531 -2.050781 1.722656 -2.703125 1.421875 -3.453125 C 1.128906 -4.203125 0.984375 -5.023438 0.984375 -5.921875 C 0.984375 -6.804688 1.128906 -7.617188 1.421875 -8.359375 C 1.710938 -9.109375 2.128906 -9.757812 2.671875 -10.3125 C 3.210938 -10.863281 3.84375 -11.289062 4.5625 -11.59375 C 5.289062 -11.894531 6.09375 -12.046875 6.96875 -12.046875 C 7.863281 -12.046875 8.691406 -11.882812 9.453125 -11.5625 C 10.222656 -11.238281 10.890625 -10.78125 11.453125 -10.1875 C 12.015625 -9.601562 12.414062 -8.925781 12.65625 -8.15625 L 11.046875 -8.15625 C 10.671875 -8.914062 10.132812 -9.503906 9.4375 -9.921875 C 8.738281 -10.347656 7.929688 -10.5625 7.015625 -10.5625 C 6.140625 -10.5625 5.359375 -10.363281 4.671875 -9.96875 C 3.992188 -9.582031 3.460938 -9.035156 3.078125 -8.328125 C 2.691406 -7.628906 2.5 -6.828125 2.5 -5.921875 C 2.5 -5.003906 2.691406 -4.195312 3.078125 -3.5 C 3.472656 -2.800781 4.007812 -2.253906 4.6875 -1.859375 C 5.375 -1.460938 6.15625 -1.265625 7.03125 -1.265625 C 7.832031 -1.265625 8.539062 -1.421875 9.15625 -1.734375 C 9.78125 -2.054688 10.285156 -2.492188 10.671875 -3.046875 C 11.066406 -3.609375 11.3125 -4.257812 11.40625 -5 L 6.59375 -5 L 6.59375 -6.421875 L 13.015625 -6.421875 C 13.035156 -5.128906 12.796875 -3.984375 12.296875 -2.984375 C 11.796875 -1.984375 11.09375 -1.195312 10.1875 -0.625 C 9.28125 -0.0625 8.21875 0.21875 7 0.21875 Z M 7 0.21875 "/></g></g></g><g fill="#5271ff" fill-opacity="1"><g transform="translate(170.121163, 113.709111)"><g/></g></g><g fill="#5271ff" fill-opacity="1"><g transform="translate(176.291625, 113.709111)"><g><path d="M 4.15625 0 L 0.328125 -11.828125 L 1.875 -11.828125 L 3.515625 -6.734375 L 4.90625 -2.390625 L 8.40625 -11.828125 L 9.8125 -11.828125 L 13.3125 -2.359375 L 16.34375 -11.828125 L 17.90625 -11.828125 L 14.046875 0 L 12.65625 0 L 11.0625 -4.3125 L 9.09375 -9.578125 L 5.546875 0 Z M 4.15625 0 "/></g></g></g><g fill="#5271ff" fill-opacity="1"><g transform="translate(196.490347, 113.709111)"><g><path d="M 1.71875 0 L 1.71875 -11.828125 L 8.90625 -11.828125 L 8.90625 -10.453125 L 3.21875 -10.453125 L 3.21875 -6.71875 L 8.484375 -6.71875 L 8.484375 -5.34375 L 3.21875 -5.34375 L 3.21875 -1.390625 L 9.09375 -1.390625 L 9.09375 0 Z M 1.71875 0 "/></g></g></g><g fill="#5271ff" fill-opacity="1"><g transform="translate(208.660841, 113.709111)"><g><path d="M 1.71875 0 L 1.71875 -11.828125 L 3.21875 -11.828125 L 3.21875 -1.421875 L 8.953125 -1.421875 L 8.953125 0 Z M 1.71875 0 "/></g></g></g><g fill="#5271ff" fill-opacity="1"><g transform="translate(220.121485, 113.709111)"><g><path d="M 1.71875 0 L 1.71875 -11.828125 L 3.21875 -11.828125 L 3.21875 -1.421875 L 8.953125 -1.421875 L 8.953125 0 Z M 1.71875 0 "/></g></g></g><g fill="#5271ff" fill-opacity="1"><g transform="translate(231.582129, 113.709111)"><g/></g></g><g fill="#5271ff" fill-opacity="1"><g transform="translate(237.752596, 113.709111)"><g><path d="M 1.71875 0 L 1.71875 -11.828125 L 8.90625 -11.828125 L 8.90625 -10.453125 L 3.21875 -10.453125 L 3.21875 -6.71875 L 8.484375 -6.71875 L 8.484375 -5.34375 L 3.21875 -5.34375 L 3.21875 -1.390625 L 9.09375 -1.390625 L 9.09375 0 Z M 1.71875 0 "/></g></g></g><g fill="#5271ff" fill-opacity="1"><g transform="translate(249.923096, 113.709111)"><g><path d="M 5 0 L 0.28125 -11.828125 L 1.875 -11.828125 L 3.84375 -6.84375 L 5.703125 -2.140625 L 7.546875 -6.84375 L 9.515625 -11.828125 L 11.09375 -11.828125 L 6.390625 0 Z M 5 0 "/></g></g></g><g fill="#5271ff" fill-opacity="1"><g transform="translate(263.276713, 113.709111)"><g><path d="M 1.71875 0 L 1.71875 -11.828125 L 8.90625 -11.828125 L 8.90625 -10.453125 L 3.21875 -10.453125 L 3.21875 -6.71875 L 8.484375 -6.71875 L 8.484375 -5.34375 L 3.21875 -5.34375 L 3.21875 -1.390625 L 9.09375 -1.390625 L 9.09375 0 Z M 1.71875 0 "/></g></g></g><g fill="#5271ff" fill-opacity="1"><g transform="translate(275.447213, 113.709111)"><g><path d="M 1.71875 0 L 1.71875 -11.828125 L 6.234375 -11.828125 C 7.054688 -11.828125 7.769531 -11.671875 8.375 -11.359375 C 8.988281 -11.054688 9.460938 -10.625 9.796875 -10.0625 C 10.140625 -9.5 10.3125 -8.820312 10.3125 -8.03125 C 10.3125 -7.070312 10.0625 -6.28125 9.5625 -5.65625 C 9.070312 -5.03125 8.390625 -4.609375 7.515625 -4.390625 L 10.5 0 L 8.703125 0 L 5.8125 -4.25 L 3.21875 -4.25 L 3.21875 0 Z M 3.21875 -5.65625 L 6.0625 -5.65625 C 6.9375 -5.65625 7.609375 -5.859375 8.078125 -6.265625 C 8.554688 -6.679688 8.796875 -7.269531 8.796875 -8.03125 C 8.796875 -8.78125 8.554688 -9.363281 8.078125 -9.78125 C 7.609375 -10.207031 6.9375 -10.421875 6.0625 -10.421875 L 3.21875 -10.421875 Z M 3.21875 -5.65625 "/></g></g></g><g fill="#5271ff" fill-opacity="1"><g transform="translate(288.93604, 113.709111)"><g><path d="M 4.734375 0 L 4.734375 -4.265625 L 0.28125 -11.828125 L 2.015625 -11.828125 L 3.9375 -8.515625 L 5.484375 -5.84375 L 8.953125 -11.828125 L 10.640625 -11.828125 L 6.1875 -4.265625 L 6.1875 0 Z M 4.734375 0 "/></g></g></g><g fill="#5271ff" fill-opacity="1"><g transform="translate(301.833297, 113.709111)"><g/></g></g><g fill="#5271ff" fill-opacity="1"><g transform="translate(308.003765, 113.709111)"><g><path d="M 1.71875 0 L 1.71875 -11.828125 L 5.8125 -11.828125 C 7.03125 -11.828125 8.09375 -11.578125 9 -11.078125 C 9.90625 -10.578125 10.613281 -9.882812 11.125 -9 C 11.632812 -8.113281 11.890625 -7.085938 11.890625 -5.921875 C 11.890625 -4.753906 11.632812 -3.722656 11.125 -2.828125 C 10.613281 -1.941406 9.90625 -1.25 9 -0.75 C 8.09375 -0.25 7.03125 0 5.8125 0 Z M 3.21875 -1.421875 L 5.8125 -1.421875 C 6.71875 -1.421875 7.507812 -1.609375 8.1875 -1.984375 C 8.875 -2.359375 9.40625 -2.882812 9.78125 -3.5625 C 10.164062 -4.238281 10.359375 -5.023438 10.359375 -5.921875 C 10.359375 -6.816406 10.164062 -7.597656 9.78125 -8.265625 C 9.394531 -8.941406 8.859375 -9.46875 8.171875 -9.84375 C 7.484375 -10.226562 6.675781 -10.421875 5.75 -10.421875 L 3.21875 -10.421875 Z M 3.21875 -1.421875 "/></g></g></g><g fill="#5271ff" fill-opacity="1"><g transform="translate(322.844699, 113.709111)"><g><path d="M 0.28125 0 L 5.15625 -11.828125 L 6.546875 -11.828125 L 11.40625 0 L 9.84375 0 L 8.71875 -2.6875 L 2.953125 -2.6875 L 1.875 0 Z M 3.53125 -4.078125 L 8.171875 -4.078125 L 5.84375 -9.75 Z M 3.53125 -4.078125 "/></g></g></g><g fill="#5271ff" fill-opacity="1"><g transform="translate(336.519429, 113.709111)"><g><path d="M 4.734375 0 L 4.734375 -4.265625 L 0.28125 -11.828125 L 2.015625 -11.828125 L 3.9375 -8.515625 L 5.484375 -5.84375 L 8.953125 -11.828125 L 10.640625 -11.828125 L 6.1875 -4.265625 L 6.1875 0 Z M 4.734375 0 "/></g></g></g></svg>