<svg xmlns="http://www.w3.org/2000/svg" xmlns:xlink="http://www.w3.org/1999/xlink" width="500" zoomAndPan="magnify" viewBox="0 0 375 374.999991" height="500" preserveAspectRatio="xMidYMid meet" version="1.0"><defs><clipPath id="0a22c8afbc"><path d="M 93 212 L 204 212 L 204 337.671875 L 93 337.671875 Z M 93 212 " clip-rule="nonzero"/></clipPath><clipPath id="5b5a798f0c"><path d="M 24.191406 49.671875 L 257 49.671875 L 257 229 L 24.191406 229 Z M 24.191406 49.671875 " clip-rule="nonzero"/></clipPath><clipPath id="1ee7f24111"><path d="M 280 200 L 350.441406 200 L 350.441406 229 L 280 229 Z M 280 200 " clip-rule="nonzero"/></clipPath></defs><rect x="-37.5" width="450" fill="#ffffff" y="-37.499999" height="449.999989" fill-opacity="1"/><rect x="-37.5" width="450" fill="#ffffff" y="-37.499999" height="449.999989" fill-opacity="1"/><g clip-path="url(#0a22c8afbc)"><path fill="#51ade5" d="M 174.996094 212.363281 L 174.996094 282.453125 C 174.996094 297.199219 163.0625 309.152344 148.339844 309.152344 C 133.621094 309.152344 121.6875 297.199219 121.6875 282.453125 L 121.6875 240.003906 L 93.242188 240.003906 L 93.242188 282.453125 C 93.242188 312.9375 117.910156 337.648438 148.339844 337.648438 C 178.769531 337.648438 203.4375 312.9375 203.4375 282.453125 L 203.4375 212.363281 L 174.996094 212.363281 " fill-opacity="1" fill-rule="nonzero"/></g><path fill="#a7a5a6" d="M 203.4375 240.003906 L 203.4375 212.363281 L 174.996094 212.363281 L 203.4375 212.363281 L 203.4375 240.003906 " fill-opacity="1" fill-rule="nonzero"/><path fill="#356f95" d="M 174.996094 240.003906 L 203.4375 240.003906 L 203.4375 212.363281 L 174.996094 212.363281 Z M 174.996094 240.003906 " fill-opacity="1" fill-rule="nonzero"/><g clip-path="url(#5b5a798f0c)"><path fill="#ed127c" d="M 242.09375 200.167969 L 79.683594 200.167969 C 65.03125 200.167969 52.820312 188.496094 52.628906 173.824219 C 52.429688 158.914062 64.4375 146.757812 79.28125 146.757812 L 121.636719 146.757812 L 121.636719 104.886719 C 121.636719 90.140625 133.59375 78.1875 148.316406 78.1875 L 148.308594 78.1875 C 163.03125 78.1875 174.957031 90.140625 174.957031 104.886719 L 174.957031 188.515625 L 203.554688 188.515625 L 203.554688 104.886719 C 203.554688 74.40625 178.886719 49.695312 148.457031 49.695312 L 148.269531 49.695312 C 117.890625 49.695312 93.039062 74.589844 93.039062 105.019531 L 93.039062 118.109375 L 79.28125 118.109375 C 48.851562 118.109375 24.183594 142.980469 24.183594 173.464844 C 24.183594 203.945312 48.851562 228.816406 79.28125 228.816406 L 242.09375 228.816406 C 249.988281 228.816406 256.390625 222.402344 256.390625 214.492188 C 256.390625 206.582031 249.988281 200.167969 242.09375 200.167969 " fill-opacity="1" fill-rule="nonzero"/></g><g clip-path="url(#1ee7f24111)"><path fill="#ed127c" d="M 280.140625 214.492188 C 280.140625 222.402344 286.546875 228.816406 294.441406 228.816406 L 336.128906 228.816406 C 344.023438 228.816406 350.429688 222.402344 350.429688 214.492188 C 350.429688 206.582031 344.023438 200.167969 336.128906 200.167969 L 294.441406 200.167969 C 286.546875 200.167969 280.140625 206.582031 280.140625 214.492188 " fill-opacity="1" fill-rule="nonzero"/></g></svg>